<svg width="95" height="178" viewBox="0 0 95 178" fill="none" xmlns="http://www.w3.org/2000/svg">
<rect x="0.5" y="0.5" width="94" height="177" rx="4.5" stroke="#9747FF" stroke-dasharray="10 5"/>
<path d="M29.8787 24.2218C30.4033 24.7465 31.7051 25.0116 32.8874 25.1446C34.4105 25.3185 35.957 25.2528 37.4461 24.8935C38.5626 24.6241 39.8093 24.1907 40.4853 23.5147M40.4853 23.5147C39.8093 24.1907 39.3751 25.438 39.1064 26.5538C38.7479 28.0437 38.6821 29.5902 38.8547 31.1118C38.9883 32.2948 39.2549 33.598 39.7782 34.1213M40.4853 23.5147L23.5147 40.4853" stroke="#011627"/>
<path d="M33.8181 84.3328C34.6051 85.1198 36.5577 85.5175 38.3312 85.7169C40.6158 85.9778 42.9355 85.8792 45.1692 85.3404C46.844 84.9363 48.714 84.2861 49.728 83.2721M49.728 83.2721C48.714 84.2861 48.0627 86.1571 47.6597 87.8308C47.1219 90.0656 47.0233 92.3853 47.2821 94.6678C47.4825 96.4423 47.8824 98.3971 48.6673 99.182M49.728 83.2721L24.2721 108.728" stroke="#011627"/>
</svg>
