<svg width="32" height="28" viewBox="0 0 32 28" fill="none" xmlns="http://www.w3.org/2000/svg">
<g clip-path="url(#clip0_91_1363)">
<path d="M0 1.07692C0 0.791305 0.112381 0.517386 0.31242 0.315424C0.512458 0.113461 0.783769 0 1.06667 0H30.9333C31.2162 0 31.4875 0.113461 31.6876 0.315424C31.8876 0.517386 32 0.791305 32 1.07692C32 1.36254 31.8876 1.63646 31.6876 1.83842C31.4875 2.04038 31.2162 2.15385 30.9333 2.15385H1.06667C0.783769 2.15385 0.512458 2.04038 0.31242 1.83842C0.112381 1.63646 0 1.36254 0 1.07692ZM0 14C0 13.7144 0.112381 13.4405 0.31242 13.2385C0.512458 13.0365 0.783769 12.9231 1.06667 12.9231H30.9333C31.2162 12.9231 31.4875 13.0365 31.6876 13.2385C31.8876 13.4405 32 13.7144 32 14C32 14.2856 31.8876 14.5595 31.6876 14.7615C31.4875 14.9635 31.2162 15.0769 30.9333 15.0769H1.06667C0.783769 15.0769 0.512458 14.9635 0.31242 14.7615C0.112381 14.5595 0 14.2856 0 14ZM1.06667 25.8462C0.783769 25.8462 0.512458 25.9596 0.31242 26.1616C0.112381 26.3635 0 26.6375 0 26.9231C0 27.2087 0.112381 27.4826 0.31242 27.6846C0.512458 27.8865 0.783769 28 1.06667 28H30.9333C31.2162 28 31.4875 27.8865 31.6876 27.6846C31.8876 27.4826 32 27.2087 32 26.9231C32 26.6375 31.8876 26.3635 31.6876 26.1616C31.4875 25.9596 31.2162 25.8462 30.9333 25.8462H1.06667Z" fill="black"/>
</g>
<defs>
<clipPath id="clip0_91_1363">
<rect width="32" height="28" fill="white"/>
</clipPath>
</defs>
</svg>
