<svg width="22" height="22" viewBox="0 0 22 22" fill="none" xmlns="http://www.w3.org/2000/svg">
<path d="M13.75 7.5625V0.6875H1.375V21.3125H6.875V17.1875H8.25V21.3125H20.625V7.5625H13.75ZM4.8125 18.5625H3.4375V17.1875H4.8125V18.5625ZM4.8125 15.125H3.4375V13.75H4.8125V15.125ZM4.8125 11.6875H3.4375V10.3125H4.8125V11.6875ZM4.8125 8.25H3.4375V6.875H4.8125V8.25ZM4.8125 4.8125H3.4375V3.4375H4.8125V4.8125ZM10.3125 3.4375H11.6875V4.8125H10.3125V3.4375ZM8.25 15.125H6.875V13.75H8.25V15.125ZM8.25 11.6875H6.875V10.3125H8.25V11.6875ZM8.25 8.25H6.875V6.875H8.25V8.25ZM8.25 4.8125H6.875V3.4375H8.25V4.8125ZM11.6875 18.5625H10.3125V17.1875H11.6875V18.5625ZM11.6875 15.125H10.3125V13.75H11.6875V15.125ZM11.6875 11.6875H10.3125V10.3125H11.6875V11.6875ZM11.6875 8.25H10.3125V6.875H11.6875V8.25ZM19.25 19.9375H13.75V18.5625H15.125V17.1875H13.75V15.125H15.125V13.75H13.75V11.6875H15.125V10.3125H13.75V8.9375H19.25V19.9375Z" fill="black"/>
<path d="M16.5 17.1875H17.875V18.5625H16.5V17.1875ZM16.5 13.75H17.875V15.125H16.5V13.75ZM16.5 10.3125H17.875V11.6875H16.5V10.3125Z" fill="black"/>
</svg>
