<svg width="48" height="48" viewBox="0 0 48 48" fill="none" xmlns="http://www.w3.org/2000/svg">
<path d="M30 39.76C30.08 40.36 29.88 41 29.42 41.42C29.235 41.6054 29.0152 41.7525 28.7733 41.8529C28.5313 41.9532 28.272 42.0049 28.01 42.0049C27.7481 42.0049 27.4887 41.9532 27.2468 41.8529C27.0048 41.7525 26.785 41.6054 26.6 41.42L18.58 33.4C18.362 33.1867 18.1962 32.9259 18.0956 32.6379C17.995 32.35 17.9623 32.0427 18 31.74V21.5L8.42002 9.24C8.09523 8.82306 7.94869 8.29452 8.01239 7.76986C8.0761 7.2452 8.34489 6.76709 8.76002 6.44C9.14002 6.16 9.56002 6 10 6H38C38.44 6 38.86 6.16 39.24 6.44C39.6551 6.76709 39.9239 7.2452 39.9876 7.76986C40.0513 8.29452 39.9048 8.82306 39.58 9.24L30 21.5V39.76ZM14.08 10L22 20.12V31.16L26 35.16V20.1L33.92 10H14.08Z" fill="black"/>
</svg>
