<svg width="26" height="26" viewBox="0 0 26 26" fill="none" xmlns="http://www.w3.org/2000/svg">
<g clip-path="url(#clip0_2020_2230)">
<path d="M17.5 1V25M25 4C25 3.20435 24.6839 2.44129 24.1213 1.87868C23.5587 1.31607 22.7956 1 22 1H4C3.20435 1 2.44129 1.31607 1.87868 1.87868C1.31607 2.44129 1 3.20435 1 4V22C1 22.7956 1.31607 23.5587 1.87868 24.1213C2.44129 24.6839 3.20435 25 4 25H22C22.7956 25 23.5587 24.6839 24.1213 24.1213C24.6839 23.5587 25 22.7956 25 22V4Z" stroke="black" stroke-width="2" stroke-linecap="round" stroke-linejoin="round"/>
<path d="M8.5 10L11.5 13L8.5 16" stroke="black" stroke-width="2" stroke-linecap="round" stroke-linejoin="round"/>
</g>
<defs>
<clipPath id="clip0_2020_2230">
<rect width="26" height="26" fill="white" transform="matrix(-1 0 0 1 26 0)"/>
</clipPath>
</defs>
</svg>
