<svg width="21" height="24" viewBox="0 0 21 24" fill="none" xmlns="http://www.w3.org/2000/svg">
<g clip-path="url(#clip0_91_997)">
<path d="M14.437 22.5036C14.4894 22.9036 14.3582 23.3302 14.0564 23.6101C13.935 23.7337 13.7908 23.8318 13.632 23.8987C13.4733 23.9656 13.3031 24 13.1312 24C12.9593 24 12.7891 23.9656 12.6304 23.8987C12.4716 23.8318 12.3274 23.7337 12.206 23.6101L6.94362 18.2642C6.80057 18.122 6.6918 17.9481 6.62578 17.7562C6.55977 17.5643 6.5383 17.3594 6.56304 17.1577V10.3319L0.27704 2.15971C0.0639307 1.88178 -0.0322287 1.52947 0.00957409 1.17975C0.0513768 0.830023 0.227743 0.511326 0.500135 0.293294C0.749475 0.106652 1.02506 0 1.31377 0H19.6862C19.9749 0 20.2505 0.106652 20.4999 0.293294C20.7723 0.511326 20.9486 0.830023 20.9904 1.17975C21.0322 1.52947 20.9361 1.88178 20.723 2.15971L14.437 10.3319V22.5036ZM3.9909 2.6663L9.18768 9.41206V16.7711L11.8123 19.4374V9.39872L17.0091 2.6663H3.9909Z" fill="black"/>
</g>
<defs>
<clipPath id="clip0_91_997">
<rect width="21" height="24" fill="white"/>
</clipPath>
</defs>
</svg>
