<svg width="48" height="48" viewBox="0 0 48 48" fill="none" xmlns="http://www.w3.org/2000/svg">
<path d="M37.5 48C40.2848 48 42.9555 46.8938 44.9246 44.9246C46.8938 42.9555 48 40.2848 48 37.5C48 34.7152 46.8938 32.0445 44.9246 30.0754C42.9555 28.1062 40.2848 27 37.5 27C34.7152 27 32.0445 28.1062 30.0754 30.0754C28.1062 32.0445 27 34.7152 27 37.5C27 40.2848 28.1062 42.9555 30.0754 44.9246C32.0445 46.8938 34.7152 48 37.5 48ZM38.562 30.438L43.062 34.938C43.3437 35.2197 43.5019 35.6017 43.5019 36C43.5019 36.3983 43.3437 36.7803 43.062 37.062C42.7803 37.3437 42.3983 37.5019 42 37.5019C41.6017 37.5019 41.2197 37.3437 40.938 37.062L39 35.121V43.5C39 43.8978 38.842 44.2794 38.5607 44.5607C38.2794 44.842 37.8978 45 37.5 45C37.1022 45 36.7206 44.842 36.4393 44.5607C36.158 44.2794 36 43.8978 36 43.5V35.121L34.062 37.062C33.7803 37.3437 33.3983 37.5019 33 37.5019C32.6017 37.5019 32.2197 37.3437 31.938 37.062C31.6563 36.7803 31.4981 36.3983 31.4981 36C31.4981 35.6017 31.6563 35.2197 31.938 34.938L36.438 30.438C36.5773 30.2983 36.7429 30.1875 36.9251 30.1119C37.1073 30.0362 37.3027 29.9973 37.5 29.9973C37.6973 29.9973 37.8927 30.0362 38.0749 30.1119C38.2571 30.1875 38.4227 30.2983 38.562 30.438ZM33 15C33 17.3869 32.0518 19.6761 30.364 21.364C28.6761 23.0518 26.3869 24 24 24C21.6131 24 19.3239 23.0518 17.636 21.364C15.9482 19.6761 15 17.3869 15 15C15 12.6131 15.9482 10.3239 17.636 8.63604C19.3239 6.94821 21.6131 6 24 6C26.3869 6 28.6761 6.94821 30.364 8.63604C32.0518 10.3239 33 12.6131 33 15ZM24 21C25.5913 21 27.1174 20.3679 28.2426 19.2426C29.3679 18.1174 30 16.5913 30 15C30 13.4087 29.3679 11.8826 28.2426 10.7574C27.1174 9.63214 25.5913 9 24 9C22.4087 9 20.8826 9.63214 19.7574 10.7574C18.6321 11.8826 18 13.4087 18 15C18 16.5913 18.6321 18.1174 19.7574 19.2426C20.8826 20.3679 22.4087 21 24 21Z" fill="black"/>
<path d="M24.768 42C24.4245 41.0256 24.194 40.015 24.081 38.988H9C9.003 38.25 9.462 36.03 11.496 33.996C13.452 32.04 17.133 30 24 30C24.78 30 25.52 30.025 26.22 30.075C26.898 29.052 27.708 28.125 28.632 27.321C27.232 27.111 25.688 27.004 24 27C9 27 6 36 6 39C6 42 9 42 9 42H24.768Z" fill="black"/>
</svg>
