<svg width="66" height="66" viewBox="0 0 66 66" fill="none" xmlns="http://www.w3.org/2000/svg">
<rect x="0.5" y="0.5" width="65" height="65" rx="4.5" stroke="#9747FF" stroke-dasharray="10 5"/>
<g clip-path="url(#clip0_2020_2229)">
<path d="M28.5 8V32M21 11C21 10.2044 21.3161 9.44129 21.8787 8.87868C22.4413 8.31607 23.2044 8 24 8H42C42.7956 8 43.5587 8.31607 44.1213 8.87868C44.6839 9.44129 45 10.2044 45 11V29C45 29.7956 44.6839 30.5587 44.1213 31.1213C43.5587 31.6839 42.7956 32 42 32H24C23.2044 32 22.4413 31.6839 21.8787 31.1213C21.3161 30.5587 21 29.7956 21 29V11Z" stroke="black" stroke-width="2" stroke-linecap="round" stroke-linejoin="round"/>
<path d="M37.5 17L34.5 20L37.5 23" stroke="black" stroke-width="2" stroke-linecap="round" stroke-linejoin="round"/>
</g>
<g clip-path="url(#clip1_2020_2229)">
<path d="M38.5 37V61M46 40C46 39.2044 45.6839 38.4413 45.1213 37.8787C44.5587 37.3161 43.7956 37 43 37H25C24.2044 37 23.4413 37.3161 22.8787 37.8787C22.3161 38.4413 22 39.2044 22 40V58C22 58.7956 22.3161 59.5587 22.8787 60.1213C23.4413 60.6839 24.2044 61 25 61H43C43.7956 61 44.5587 60.6839 45.1213 60.1213C45.6839 59.5587 46 58.7956 46 58V40Z" stroke="black" stroke-width="2" stroke-linecap="round" stroke-linejoin="round"/>
<path d="M29.5 46L32.5 49L29.5 52" stroke="black" stroke-width="2" stroke-linecap="round" stroke-linejoin="round"/>
</g>
<defs>
<clipPath id="clip0_2020_2229">
<rect width="26" height="26" fill="white" transform="translate(20 7)"/>
</clipPath>
<clipPath id="clip1_2020_2229">
<rect width="26" height="26" fill="white" transform="matrix(-1 0 0 1 47 36)"/>
</clipPath>
</defs>
</svg>
