<svg width="32" height="16" viewBox="0 0 32 16" fill="none" xmlns="http://www.w3.org/2000/svg">
<path d="M7.308 2.232V0.232H32V2.232H7.308ZM7.308 9V7H32V9H7.308ZM7.308 15.77V13.77H32V15.77H7.308ZM1.232 2.46C0.882667 2.46 0.59 2.338 0.354 2.094C0.118 1.85267 0 1.552 0 1.192C0 0.854666 0.118 0.572 0.354 0.344C0.59 0.114667 0.882667 0 1.232 0C1.58 0 1.872 0.114667 2.108 0.344C2.344 0.570667 2.462 0.853333 2.462 1.192C2.462 1.552 2.344 1.85333 2.108 2.096C1.872 2.34 1.57933 2.462 1.23 2.462M1.23 9.192C0.882 9.192 0.59 9.078 0.354 8.85C0.118 8.622 0 8.33867 0 8C0 7.61333 0.118 7.30533 0.354 7.076C0.59 6.84667 0.882667 6.73133 1.232 6.73C1.58133 6.72867 1.87333 6.84333 2.108 7.074C2.34267 7.30467 2.46067 7.61333 2.462 8C2.462 8.33733 2.344 8.62067 2.108 8.85C1.872 9.07933 1.57933 9.19333 1.23 9.192ZM1.23 16C0.882 16 0.59 15.8787 0.354 15.636C0.118 15.392 0 15.0907 0 14.732C0 14.3933 0.118 14.11 0.354 13.882C0.59 13.6527 0.882667 13.538 1.232 13.538C1.58 13.538 1.872 13.6527 2.108 13.882C2.344 14.1113 2.462 14.3947 2.462 14.732C2.462 15.0907 2.344 15.392 2.108 15.636C1.872 15.8787 1.57933 16 1.23 16Z" fill="black"/>
</svg>
