<svg width="48" height="48" viewBox="0 0 48 48" fill="none" xmlns="http://www.w3.org/2000/svg">
<path d="M5.5 14L8.06 11.5L26.52 30L40 43.44L37.46 46L31.46 40H8V34C8 30.28 13.22 27.84 18.18 26.72L5.5 14ZM40 34V38.36L36.2 34.56V34C36.2 33.48 35.2 32.7 33.6 32L28 26.36C33.42 27.26 40 29.82 40 34ZM11.8 34V36.2H27.66L21.44 30C16.38 30.6 11.8 32.9 11.8 34ZM24 8C26.1217 8 28.1566 8.84285 29.6569 10.3431C31.1571 11.8434 32 13.8783 32 16C32 19.9 29.2 23.16 25.5 23.86L16.14 14.5C16.4905 12.6719 17.4669 11.0231 18.9013 9.83682C20.3358 8.65059 22.1386 8.0011 24 8ZM24 12C22.9391 12 21.9217 12.4214 21.1716 13.1716C20.4214 13.9217 20 14.9391 20 16C20 17.0609 20.4214 18.0783 21.1716 18.8284C21.9217 19.5786 22.9391 20 24 20C25.0609 20 26.0783 19.5786 26.8284 18.8284C27.5786 18.0783 28 17.0609 28 16C28 14.9391 27.5786 13.9217 26.8284 13.1716C26.0783 12.4214 25.0609 12 24 12Z" fill="black"/>
</svg>
