<svg width="48" height="48" viewBox="0 0 48 48" fill="none" xmlns="http://www.w3.org/2000/svg">
<path d="M40.68 18.64L12.68 4.64001C11.575 4.09003 10.3272 3.89423 9.10688 4.07932C7.88651 4.2644 6.75292 4.82135 5.86067 5.67424C4.96841 6.52714 4.36091 7.63446 4.12099 8.84523C3.88107 10.056 4.02041 11.3113 4.52001 12.44L9.32001 23.18C9.42892 23.4397 9.48501 23.7184 9.48501 24C9.48501 24.2816 9.42892 24.5604 9.32001 24.82L4.52001 35.56C4.11341 36.4734 3.94152 37.474 4.01996 38.4707C4.0984 39.4675 4.42469 40.4288 4.96917 41.2674C5.51365 42.106 6.25906 42.7952 7.13765 43.2724C8.01625 43.7497 9.00017 43.9998 10 44C10.9365 43.9907 11.859 43.772 12.7 43.36L40.7 29.36C41.6932 28.8604 42.528 28.0946 43.1114 27.1482C43.6947 26.2017 44.0036 25.1118 44.0036 24C44.0036 22.8882 43.6947 21.7983 43.1114 20.8519C42.528 19.9054 41.6932 19.1396 40.7 18.64H40.68ZM38.9 25.78L10.9 39.78C10.5323 39.9566 10.1195 40.0165 9.71678 39.9517C9.31409 39.887 8.94082 39.7006 8.64703 39.4177C8.35324 39.1348 8.15297 38.7688 8.07307 38.3689C7.99317 37.9689 8.03746 37.5541 8.20001 37.18L12.98 26.44C13.0419 26.2966 13.0953 26.1497 13.14 26H26.92C27.4504 26 27.9591 25.7893 28.3342 25.4142C28.7093 25.0392 28.92 24.5304 28.92 24C28.92 23.4696 28.7093 22.9609 28.3342 22.5858C27.9591 22.2107 27.4504 22 26.92 22H13.14C13.0953 21.8503 13.0419 21.7034 12.98 21.56L8.20001 10.82C8.03746 10.4459 7.99317 10.0311 8.07307 9.63115C8.15297 9.23119 8.35324 8.86522 8.64703 8.58231C8.94082 8.2994 9.31409 8.11307 9.71678 8.04832C10.1195 7.98356 10.5323 8.04347 10.9 8.22001L38.9 22.22C39.2276 22.3878 39.5025 22.6428 39.6945 22.9569C39.8865 23.271 39.9881 23.6319 39.9881 24C39.9881 24.3681 39.8865 24.7291 39.6945 25.0431C39.5025 25.3572 39.2276 25.6122 38.9 25.78Z" fill="black"/>
</svg>
