<svg width="48" height="48" viewBox="0 0 48 48" fill="none" xmlns="http://www.w3.org/2000/svg">
<path d="M36 28V22H30V18H36V12H40V18H46V22H40V28H36ZM18 24C15.8 24 13.9167 23.2167 12.35 21.65C10.7833 20.0833 10 18.2 10 16C10 13.8 10.7833 11.9167 12.35 10.35C13.9167 8.78333 15.8 8 18 8C20.2 8 22.0833 8.78333 23.65 10.35C25.2167 11.9167 26 13.8 26 16C26 18.2 25.2167 20.0833 23.65 21.65C22.0833 23.2167 20.2 24 18 24ZM2 40V34.4C2 33.2667 2.292 32.2253 2.876 31.276C3.46 30.3267 4.23467 29.6013 5.2 29.1C7.26667 28.0667 9.36667 27.292 11.5 26.776C13.6333 26.26 15.8 26.0013 18 26C20.2 25.9987 22.3667 26.2573 24.5 26.776C26.6333 27.2947 28.7333 28.0693 30.8 29.1C31.7667 29.6 32.542 30.3253 33.126 31.276C33.71 32.2267 34.0013 33.268 34 34.4V40H2ZM6 36H30V34.4C30 34.0333 29.9087 33.7 29.726 33.4C29.5433 33.1 29.3013 32.8667 29 32.7C27.2 31.8 25.3833 31.1253 23.55 30.676C21.7167 30.2267 19.8667 30.0013 18 30C16.1333 29.9987 14.2833 30.224 12.45 30.676C10.6167 31.128 8.8 31.8027 7 32.7C6.7 32.8667 6.458 33.1 6.274 33.4C6.09 33.7 5.99867 34.0333 6 34.4V36ZM18 20C19.1 20 20.042 19.6087 20.826 18.826C21.61 18.0433 22.0013 17.1013 22 16C21.9987 14.8987 21.6073 13.9573 20.826 13.176C20.0447 12.3947 19.1027 12.0027 18 12C16.8973 11.9973 15.956 12.3893 15.176 13.176C14.396 13.9627 14.004 14.904 14 16C13.996 17.096 14.388 18.038 15.176 18.826C15.964 19.614 16.9053 20.0053 18 20Z" fill="black"/>
</svg>
