<svg width="38" height="24" viewBox="0 0 38 24" fill="none" xmlns="http://www.w3.org/2000/svg">
<g clip-path="url(#clip0_180_3255)">
<path d="M17.3812 16.4793C19.0006 15.4094 20.23 13.8507 20.8877 12.0337C21.5454 10.2167 21.5965 8.2379 21.0333 6.3899C20.4702 4.5419 19.3227 2.92281 17.7606 1.77206C16.1986 0.621314 14.3048 0 12.3594 0C10.414 0 8.52019 0.621314 6.95811 1.77206C5.39602 2.92281 4.24856 4.5419 3.68541 6.3899C3.12226 8.2379 3.17331 10.2167 3.83102 12.0337C4.48872 13.8507 5.71817 15.4094 7.33754 16.4793C4.40825 17.5507 1.90657 19.5334 0.205786 22.1315C0.116399 22.2634 0.0543099 22.4115 0.0231291 22.5674C-0.00805167 22.7233 -0.00770256 22.8837 0.0241561 23.0395C0.0560148 23.1952 0.118748 23.3431 0.208708 23.4746C0.298668 23.606 0.414062 23.7184 0.548181 23.8052C0.6823 23.8921 0.832469 23.9516 0.989959 23.9803C1.14745 24.009 1.30912 24.0063 1.46557 23.9725C1.62203 23.9387 1.77014 23.8743 1.9013 23.7831C2.03247 23.692 2.14407 23.5759 2.22962 23.4415C3.32671 21.767 4.82792 20.3909 6.59693 19.4383C8.36595 18.4857 10.3467 17.9868 12.3594 17.9868C14.372 17.9868 16.3528 18.4857 18.1218 19.4383C19.8908 20.3909 21.392 21.767 22.4891 23.4415C22.6663 23.7029 22.9401 23.8846 23.2512 23.9473C23.5623 24.01 23.8858 23.9486 24.1517 23.7765C24.4176 23.6044 24.6045 23.3353 24.6721 23.0275C24.7398 22.7197 24.6826 22.3978 24.513 22.1315C22.8122 19.5334 20.3105 17.5507 17.3812 16.4793ZM5.71394 8.99689C5.71394 7.69251 6.10369 6.41743 6.8339 5.33288C7.56411 4.24833 8.60198 3.40303 9.81628 2.90387C11.0306 2.4047 12.3667 2.2741 13.6558 2.52857C14.9449 2.78304 16.129 3.41116 17.0584 4.33349C17.9878 5.25582 18.6207 6.43095 18.8771 7.71026C19.1335 8.98957 19.0019 10.3156 18.499 11.5207C17.996 12.7258 17.1442 13.7558 16.0514 14.4805C14.9585 15.2051 13.6737 15.5919 12.3594 15.5919C10.5975 15.59 8.90838 14.8945 7.66255 13.6581C6.41672 12.4217 5.71594 10.7454 5.71394 8.99689ZM37.4519 23.7908C37.1835 23.9645 36.8566 24.0252 36.5431 23.9597C36.2295 23.8943 35.9551 23.7079 35.78 23.4415C34.6842 21.766 33.1832 20.3893 31.4138 19.4371C29.6444 18.4849 27.663 17.9875 25.6502 17.9901C25.3298 17.9901 25.0225 17.8638 24.7959 17.6389C24.5693 17.4141 24.442 17.1091 24.442 16.791C24.442 16.473 24.5693 16.168 24.7959 15.9431C25.0225 15.7183 25.3298 15.5919 25.6502 15.5919C26.6289 15.591 27.5952 15.3756 28.4803 14.9611C29.3653 14.5466 30.1472 13.9432 30.77 13.194C31.3928 12.4448 31.8412 11.5684 32.0831 10.6273C32.3251 9.68625 32.3546 8.70376 32.1696 7.75005C31.9845 6.79634 31.5896 5.89496 31.0128 5.11031C30.4361 4.32565 29.6918 3.6771 28.8333 3.21099C27.9747 2.74488 27.023 2.47271 26.0461 2.41394C25.0693 2.35516 24.0914 2.51123 23.1824 2.87099C23.0342 2.93458 22.8746 2.96804 22.7131 2.96939C22.5517 2.97075 22.3916 2.93997 22.2423 2.87888C22.093 2.81779 21.9576 2.72762 21.844 2.61371C21.7305 2.4998 21.6411 2.36446 21.5811 2.21567C21.5211 2.06689 21.4918 1.90768 21.4949 1.74747C21.498 1.58725 21.5334 1.42927 21.599 1.28287C21.6647 1.13646 21.7592 1.0046 21.8771 0.895066C21.9949 0.785537 22.1337 0.700563 22.2852 0.645167C24.3656 -0.178238 26.6796 -0.207869 28.7807 0.56199C30.8819 1.33185 32.6213 2.84665 33.6634 4.81416C34.7055 6.78167 34.9766 9.06249 34.4242 11.2166C33.8718 13.3707 32.5351 15.2455 30.6721 16.4793C33.6014 17.5507 36.103 19.5334 37.8038 22.1315C37.9788 22.3979 38.0401 22.7223 37.9741 23.0335C37.9081 23.3446 37.7203 23.617 37.4519 23.7908Z" fill="black"/>
</g>
<defs>
<clipPath id="clip0_180_3255">
<rect width="38" height="24" fill="white"/>
</clipPath>
</defs>
</svg>
