<svg width="48" height="48" viewBox="0 0 48 48" fill="none" xmlns="http://www.w3.org/2000/svg">
<path d="M32 32C32 29.79 25.732 28 18 28M32 32C32 34.21 25.732 36 18 36C10.268 36 4 34.21 4 32M32 32V41.874C32 44.152 25.732 46 18 46C10.268 46 4 44.154 4 41.874V32M32 32C39.648 32 46 30.026 46 28V8M18 28C10.268 28 4 29.79 4 32M18 28C9.164 28 2 26.026 2 24V14M18 10C9.164 10 2 11.79 2 14M2 14C2 16.21 9.164 18 18 18C18 20.026 24.506 22 32.154 22C39.802 22 46 20.026 46 18M46 8C46 5.79 39.8 4 32.154 4C24.508 4 18.308 5.79 18.308 8M46 8C46 10.21 39.8 12 32.154 12C24.508 12 18.308 10.21 18.308 8M18.308 8V28.332" stroke="black" stroke-width="4"/>
</svg>
