<svg width="48" height="48" viewBox="0 0 48 48" fill="none" xmlns="http://www.w3.org/2000/svg">
<path d="M6.06 26.156C5.73796 25.4825 5.5708 24.7455 5.5708 23.999C5.5708 23.2525 5.73796 22.5154 6.06 21.842C6.34 21.254 6.82 20.69 7.78 19.562C8.164 19.112 8.356 18.888 8.516 18.648C8.8841 18.099 9.1397 17.4824 9.268 16.834C9.324 16.55 9.348 16.256 9.394 15.668C9.512 14.192 9.57 13.454 9.788 12.836C10.037 12.1323 10.4403 11.4934 10.9684 10.966C11.4965 10.4385 12.136 10.036 12.84 9.78798C13.456 9.56998 14.194 9.50998 15.672 9.39398C16.26 9.34598 16.552 9.32198 16.836 9.26598C17.4851 9.13794 18.1024 8.88233 18.652 8.51398C18.892 8.35398 19.116 8.16398 19.564 7.77998C20.692 6.81998 21.256 6.33998 21.844 6.05798C22.5175 5.73594 23.2545 5.56879 24.001 5.56879C24.7475 5.56879 25.4845 5.73594 26.158 6.05798C26.748 6.33798 27.312 6.81798 28.438 7.77998C28.888 8.16398 29.112 8.35398 29.352 8.51398C29.9016 8.88233 30.5189 9.13794 31.168 9.26598C31.45 9.32198 31.744 9.34598 32.332 9.39398C33.81 9.50998 34.548 9.56998 35.164 9.78798C35.8676 10.0363 36.5067 10.4389 37.0344 10.9663C37.5622 11.4937 37.9652 12.1326 38.214 12.836M9.788 35.162C10.0368 35.8654 10.4398 36.5042 10.9675 37.0317C11.4953 37.5591 12.1344 37.9617 12.838 38.21C13.454 38.43 14.192 38.488 15.67 38.604C16.258 38.652 16.55 38.676 16.834 38.732C17.4831 38.86 18.1004 39.1156 18.65 39.484C18.89 39.644 19.114 39.834 19.562 40.218C20.69 41.178 21.254 41.658 21.842 41.94C22.5155 42.262 23.2525 42.4292 23.999 42.4292C24.7455 42.4292 25.4825 42.262 26.156 41.94C26.746 41.66 27.31 41.18 28.436 40.218C28.726 39.9557 29.0312 39.7106 29.35 39.484C29.8996 39.1156 30.5169 38.86 31.166 38.732C31.448 38.676 31.742 38.652 32.33 38.604C33.808 38.488 34.546 38.428 35.162 38.21C35.8656 37.9617 36.5047 37.5591 37.0324 37.0317C37.5602 36.5042 37.9632 35.8654 38.212 35.162C38.43 34.546 38.488 33.806 38.606 32.33C38.652 31.742 38.676 31.448 38.732 31.164C38.86 30.516 39.116 29.898 39.484 29.35C39.644 29.11 39.836 28.886 40.218 28.436C41.178 27.308 41.66 26.744 41.942 26.156C42.264 25.4825 42.4312 24.7455 42.4312 23.999C42.4312 23.2525 42.264 22.5154 41.942 21.842M18 30L30 18" stroke="black" stroke-width="3" stroke-linecap="round"/>
<path d="M31 29C31 29.5304 30.7893 30.0391 30.4142 30.4142C30.0391 30.7893 29.5304 31 29 31C28.4696 31 27.9609 30.7893 27.5858 30.4142C27.2107 30.0391 27 29.5304 27 29C27 28.4696 27.2107 27.9609 27.5858 27.5858C27.9609 27.2107 28.4696 27 29 27C29.5304 27 30.0391 27.2107 30.4142 27.5858C30.7893 27.9609 31 28.4696 31 29ZM21 19C21 19.5304 20.7893 20.0391 20.4142 20.4142C20.0391 20.7893 19.5304 21 19 21C18.4696 21 17.9609 20.7893 17.5858 20.4142C17.2107 20.0391 17 19.5304 17 19C17 18.4696 17.2107 17.9609 17.5858 17.5858C17.9609 17.2107 18.4696 17 19 17C19.5304 17 20.0391 17.2107 20.4142 17.5858C20.7893 17.9609 21 18.4696 21 19Z" fill="black"/>
</svg>
