<svg width="26" height="28" viewBox="0 0 26 28" fill="none" xmlns="http://www.w3.org/2000/svg">
<g clip-path="url(#clip0_2020_2390)">
<path d="M13.1933 18.7383C13.7835 18.7383 14.3678 18.622 14.9131 18.3962C15.4583 18.1703 15.9537 17.8393 16.371 17.422C16.7882 17.0048 17.1193 16.5094 17.3451 15.9641C17.5709 15.4189 17.6872 14.8346 17.6872 14.2444C17.6872 13.6543 17.5709 13.0699 17.3451 12.5247C17.1193 11.9795 16.7882 11.4841 16.371 11.0668C15.9537 10.6495 15.4583 10.3185 14.9131 10.0927C14.3678 9.86685 13.7835 9.75061 13.1933 9.75061C12.0015 9.75061 10.8585 10.2241 10.0157 11.0668C9.17298 11.9096 8.69952 13.0526 8.69952 14.2444C8.69952 15.4363 9.17298 16.5793 10.0157 17.422C10.8585 18.2648 12.0015 18.7383 13.1933 18.7383Z" stroke="black" stroke-width="1.5" stroke-linecap="round" stroke-linejoin="round"/>
<path d="M25.017 18.3241C24.4878 19.8462 23.6705 21.2522 22.6098 22.4653L19.7725 21.8214C18.6964 22.7866 17.4179 23.4986 16.0307 23.9053L15.2639 26.6826C14.5452 26.8115 13.8167 26.8781 13.0865 26.8816C12.1729 26.8827 11.2622 26.7796 10.372 26.5744L9.5585 23.7076C8.34605 23.2607 7.23151 22.5835 6.2763 21.7132L3.471 22.4346C2.35846 21.1345 1.52338 19.6207 1.01703 17.9862L3.08761 15.6858C2.89863 14.5094 2.92989 13.3081 3.17978 12.1431L1.13726 10.0124C1.731 8.34115 2.67207 6.81459 3.89847 5.53331L6.79728 6.25467C7.59549 5.61468 8.48472 5.09735 9.4356 4.71977L10.2024 1.88241C11.1495 1.63715 12.1229 1.5084 13.1012 1.49902C13.8827 1.49902 14.6641 1.57116 15.4323 1.71276L16.1683 4.53543C17.2771 4.89477 18.3164 5.44381 19.2354 6.16116L22.1503 5.40908C23.3263 6.59429 24.2541 8.00213 24.8794 9.55023L22.9024 11.697C23.2773 13.168 23.3084 14.7057 22.9932 16.1908L25.017 18.3241Z" stroke="black" stroke-width="1.5" stroke-linecap="round" stroke-linejoin="round"/>
</g>
<defs>
<clipPath id="clip0_2020_2390">
<rect width="26" height="28" fill="white"/>
</clipPath>
</defs>
</svg>
