<svg width="98" height="107" viewBox="0 0 98 107" fill="none" xmlns="http://www.w3.org/2000/svg">
<g clip-path="url(#clip0_180_3261)">
<path d="M89.25 104C90.775 104 92.2375 103.392 93.3158 102.31C94.3942 101.227 95 99.7592 95 98.2286V91.0374C95.023 74.8427 72.1495 62.1571 49 62.1571C25.8505 62.1571 3 74.8427 3 91.0374V98.2286C3 99.7592 3.6058 101.227 4.68414 102.31C5.76247 103.392 7.225 104 8.75 104H89.25ZM69.723 23.8002C69.723 26.5318 69.187 29.2365 68.1455 31.7601C67.1041 34.2837 65.5777 36.5767 63.6534 38.5082C61.7291 40.4397 59.4446 41.9718 56.9303 43.0171C54.4161 44.0624 51.7214 44.6005 49 44.6005C46.2786 44.6005 43.5839 44.0624 41.0696 43.0171C38.5554 41.9718 36.2709 40.4397 34.3466 38.5082C32.4223 36.5767 30.8959 34.2837 29.8544 31.7601C28.813 29.2365 28.277 26.5318 28.277 23.8002C28.277 18.2837 30.4603 12.993 34.3466 9.09225C38.2329 5.19145 43.5039 3 49 3C54.4961 3 59.767 5.19145 63.6534 9.09225C67.5397 12.993 69.723 18.2837 69.723 23.8002Z" stroke="black" stroke-width="6" stroke-linecap="round" stroke-linejoin="round"/>
</g>
<defs>
<clipPath id="clip0_180_3261">
<rect width="98" height="107" fill="white"/>
</clipPath>
</defs>
</svg>
